# xmcd
#
# Track frame offsets:
#	150
#	12560
#	25452
#	40794
#	60010
#	79623
#	95404
#	110038
#	123379
#	137569
#	153527
#	170421
#	185660
#	201276
#	217888
#
# Disc length: 3189 seconds
#
# Revision: 0
# Processed by: cddbd v1.5.2PL0 Copyright (c) Steve Scherf et al.
# Submitted via: EasyCDDAExtractor 11.1.0.1
#
DISCID=c80c730f
DTITLE=Bosák jiří - Pivní pěna - Lidovky A-D [CD1)
DYEAR=2007
DGENRE=Country
TTITLE0=Andulko
TTITLE1=Až přijdu za tebou
TTITLE2=Až ztichnou bílé skály
TTITLE3=Bílí rejtaři, Břeclavská
TTITLE4=Cestička k Majrovce
TTITLE5=Cikánka
TTITLE6=Co je to za děvčátko
TTITLE7=Co jste hasiči
TTITLE8=Co sedláci, co děláte
TTITLE9=Černá čára
TTITLE10=Černý cikán
TTITLE11=Čím srdce, čím jsi
TTITLE12=Děvčátko
TTITLE13=Do lesíčka na čekanou
TTITLE14=Dráteník a Hastrman
EXTD=
EXTT0=
EXTT1=
EXTT2=
EXTT3=
EXTT4=
EXTT5=
EXTT6=
EXTT7=
EXTT8=
EXTT9=
EXTT10=
EXTT11=
EXTT12=
EXTT13=
EXTT14=
PLAYORDER=
